<svg xmlns="http://www.w3.org/2000/svg" xmlns:xlink="http://www.w3.org/1999/xlink" version="1.1" width="1080" height="1080" viewBox="0 0 1080 1080" xml:space="preserve">
<desc>Created with Fabric.js 5.2.4</desc>
<defs>
</defs>
<rect x="0" y="0" width="100%" height="100%" fill="transparent"></rect>
<g transform="matrix(1 0 0 1 540 540)" id="98e849ff-2122-4d2d-849a-78e55e989564"  >
<rect style="stroke: none; stroke-width: 1; stroke-dasharray: none; stroke-linecap: butt; stroke-dashoffset: 0; stroke-linejoin: miter; stroke-miterlimit: 4; fill: rgb(255,255,255); fill-rule: nonzero; opacity: 1; visibility: hidden;" vector-effect="non-scaling-stroke"  x="-540" y="-540" rx="0" ry="0" width="1080" height="1080" />
</g>
<g transform="matrix(1 0 0 1 540 540)" id="f2521500-4c01-4cfd-afa0-82c700aa90f4"  >
</g>
<g transform="matrix(1 0 0 1 540 540)" id="path1009"  >
<path style="stroke: rgb(214, 217, 219); stroke-width: 0; stroke-dasharray: none; stroke-linecap: butt; stroke-dashoffset: 0; stroke-linejoin: miter; stroke-miterlimit: 4; fill: rgb(214, 217, 219); fill-rule: nonzero; opacity: 1;" vector-effect="non-scaling-stroke"  transform=" translate(-781.89, -635.65)" d="M 283.94 167.31 L 670.3299999999999 683.95 L 281.5 1104 L 369.01 1104 L 709.4300000000001 736.24 L 984.48 1104 L 1282.28 1104 L 874.15 558.3 L 1236.07 167.30999999999995 L 1148.56 167.30999999999995 L 835.05 506.00999999999993 L 581.74 167.30999999999995 L 283.94 167.30999999999995 z M 412.63 231.77 L 549.44 231.77 L 1153.5700000000002 1039.53 L 1016.7600000000002 1039.53 L 412.63 231.77 z" stroke-linecap="round" />
</g>
</svg>